<?xml version="1.0" standalone="no"?><!DOCTYPE svg PUBLIC "-//W3C//DTD SVG 1.1//EN" "http://www.w3.org/Graphics/SVG/1.1/DTD/svg11.dtd"><svg t="1760783139684" class="icon" viewBox="0 0 1024 1024" version="1.1" xmlns="http://www.w3.org/2000/svg" p-id="22245" xmlns:xlink="http://www.w3.org/1999/xlink" width="128" height="128"><path d="M0 0h1024v1024H0V0z" fill="#202425" opacity=".01" p-id="22246"></path><path d="M170.666667 34.133333h187.733333v166.2976a409.258667 409.258667 0 0 0-102.229333 59.938134l-119.9104-69.973334A68.266667 68.266667 0 0 1 102.4 131.4816V102.4a68.266667 68.266667 0 0 1 68.266667-68.266667z m597.162666 226.235734l119.9104-69.973334A68.266667 68.266667 0 0 0 921.6 131.4816V102.4a68.266667 68.266667 0 0 0-68.266667-68.266667h-187.733333v166.2976a409.258667 409.258667 0 0 1 102.229333 59.938134zM631.466667 188.347733V34.133333h-238.933334v154.2144A409.565867 409.565867 0 0 1 512 170.666667c41.5744 0 81.681067 6.178133 119.466667 17.681066z" fill="#FFAA44" p-id="22247"></path><path d="M921.6 580.266667c0 226.2016-183.3984 409.6-409.6 409.6S102.4 806.468267 102.4 580.266667 285.7984 170.666667 512 170.666667s409.6 183.3984 409.6 409.6z" fill="#FF7744" p-id="22248"></path><path d="M512 426.666667a153.6 153.6 0 1 0 0 307.2 153.6 153.6 0 0 0 0-307.2zM256 580.266667a256 256 0 1 1 512 0 256 256 0 0 1-512 0z" fill="#FFFFFF" p-id="22249"></path></svg>