<?xml version="1.0" standalone="no"?><!DOCTYPE svg PUBLIC "-//W3C//DTD SVG 1.1//EN" "http://www.w3.org/Graphics/SVG/1.1/DTD/svg11.dtd"><svg t="1759301296616" class="icon" viewBox="0 0 1024 1024" version="1.1" xmlns="http://www.w3.org/2000/svg" p-id="183089" xmlns:xlink="http://www.w3.org/1999/xlink" width="128" height="128"><path d="M255.744 53.376a32.896 32.896 0 0 0-12.48 2.624 31.68 31.68 0 0 0-18.624 35.84 32.896 32.896 0 0 0 1.984 6.272l111.744 257.408-3.52 1.984a315.2 315.2 0 0 0-37.504 27.776 324.48 324.48 0 0 0-43.328 44.8 328.576 328.576 0 0 0-18.24 25.6 334.528 334.528 0 0 0-16 27.2 335.36 335.36 0 0 0-28.416 74.88 335.744 335.744 0 0 0-6.4 32.128 341.696 341.696 0 0 0-1.92 83.712 341.248 341.248 0 0 0 17.6 79.68 336.96 336.96 0 0 0 19.136 43.84 332.608 332.608 0 0 0 16 27.264 337.472 337.472 0 0 0 38.848 48.96 329.6 329.6 0 0 0 60.224 49.152 326.016 326.016 0 0 0 86.144 37.76 310.72 310.72 0 0 0 31.36 6.592 303.68 303.68 0 0 0 49.024 3.84h21.248a318.336 318.336 0 0 0 49.024-3.84 309.248 309.248 0 0 0 31.36-6.592 306.24 306.24 0 0 0 72.64-29.76 324.032 324.032 0 0 0 38.976-25.856 322.176 322.176 0 0 0 23.68-20.288 333.824 333.824 0 0 0 41.088-46.976 327.616 327.616 0 0 0 24.832-40.256 337.856 337.856 0 0 0 28.416-74.88 334.08 334.08 0 0 0 6.4-32.128 340.48 340.48 0 0 0 3.2-67.008 343.808 343.808 0 0 0-30.976-125.952 340.032 340.032 0 0 0-23.04-41.536 323.968 323.968 0 0 0-73.6-80.256 317.44 317.44 0 0 0-25.472-17.856l-3.52-1.984 111.744-257.408a32.896 32.896 0 0 0 2.112-18.56 32.32 32.32 0 0 0-53.632-17.408 32.192 32.192 0 0 0-3.968 4.864 32.32 32.32 0 0 0-3.2 5.632L627.84 327.616l-9.6-3.392a309.76 309.76 0 0 0-30.784-8.128 312.064 312.064 0 0 0-48.256-6.4 318.4 318.4 0 0 0-16.64-0.32h-6.4l91.648-211.2a32.96 32.96 0 0 0 2.112-18.688 31.68 31.68 0 0 0-48.64-21.12 31.552 31.552 0 0 0-12.096 14.272L512 158.4l-37.248-85.76a31.68 31.68 0 0 0-41.984-16.64 32.832 32.832 0 0 0-10.496 7.232 31.488 31.488 0 0 0-6.656 10.368 31.744 31.744 0 0 0-2.24 12.032 31.872 31.872 0 0 0 2.752 12.48l60.992 140.672-33.024 75.84a312.192 312.192 0 0 0-38.4 9.6l-9.6 3.392-110.72-254.976a31.744 31.744 0 0 0-29.632-19.264z m245.632 320h21.248c4.416 0 8.768 0 13.12 0.256 4.352 0.192 8.576 0.64 12.864 1.152a246.208 246.208 0 0 1 37.632 6.848 248 248 0 0 1 46.912 17.92 249.344 249.344 0 0 1 42.24 26.496 258.048 258.048 0 0 1 27.84 24.96 269.632 269.632 0 0 1 63.872 109.248 287.616 287.616 0 0 1 6.272 25.728c0.832 4.352 1.728 8.704 2.368 13.12a277.184 277.184 0 0 1 1.6 68.416 276.48 276.48 0 0 1-1.6 13.376c-0.64 4.416-1.536 8.768-2.368 13.12a287.616 287.616 0 0 1-2.88 12.992c-1.024 4.288-2.112 8.576-3.392 12.8a267.008 267.008 0 0 1-8.704 24.448 272 272 0 0 1-17.024 34.496 272.96 272.96 0 0 1-46.976 59.008 263.552 263.552 0 0 1-50.176 36.992c-3.584 2.048-7.36 3.84-11.072 5.76a248.512 248.512 0 0 1-22.912 10.112 238.272 238.272 0 0 1-36.224 10.624 257.28 257.28 0 0 1-38.272 5.12 248.32 248.32 0 0 1-13.12 0.256h-21.248c-4.416 0-8.768 0-13.12-0.256a251.2 251.2 0 0 1-25.6-2.752 257.472 257.472 0 0 1-60.544-17.728 248.512 248.512 0 0 1-11.264-5.376c-3.712-1.92-7.488-3.712-11.072-5.76a251.904 251.904 0 0 1-40.768-28.608 263.04 263.04 0 0 1-85.504-139.136 275.84 275.84 0 0 1-5.12-26.112c-0.64-4.48-1.28-8.896-1.728-13.44a280.064 280.064 0 0 1 0-54.976c0.384-4.48 1.088-8.96 1.728-13.376A273.28 273.28 0 0 1 296.512 480a267.84 267.84 0 0 1 24.256-28.992 260.544 260.544 0 0 1 59.008-45.76c3.584-2.048 7.36-3.84 11.072-5.76a248.448 248.448 0 0 1 22.912-10.112 247.936 247.936 0 0 1 61.632-14.592c4.288-0.512 8.512-0.96 12.8-1.152 4.416-0.256 8.768-0.256 13.184-0.256zM519.744 480a49.216 49.216 0 0 0-11.968 1.408 60.544 60.544 0 0 0-18.176 7.488 88.32 88.32 0 0 0-13.44 9.728 204.736 204.736 0 0 0-26.88 29.12l-4.672 6.4-1.28 1.856-0.32 0.512-0.128 0.256h-0.128a32.128 32.128 0 0 0-4.736 24.128 32 32 0 0 0 43.52 23.36 31.104 31.104 0 0 0 14.336-11.904l0.256-0.128 0.768-1.28 3.328-4.48 1.152-1.472V736h-32a32.448 32.448 0 0 0-12.48 2.56 31.68 31.68 0 0 0-10.176 6.848 33.216 33.216 0 0 0-6.848 10.112 31.744 31.744 0 0 0 11.648 39.04 31.296 31.296 0 0 0 17.856 5.44h128a31.232 31.232 0 0 0 22.656-9.344 32 32 0 0 0 9.344-22.656 32.704 32.704 0 0 0-2.56-12.48 31.36 31.36 0 0 0-6.784-10.176 32.256 32.256 0 0 0-22.656-9.344h-32V552.512 550.4a397.248 397.248 0 0 0-0.768-24.32 83.008 83.008 0 0 0-3.584-17.088 49.92 49.92 0 0 0-5.632-10.752 42.88 42.88 0 0 0-35.648-18.24z" fill="#515151" p-id="183090"></path></svg>