<?xml version="1.0" standalone="no"?><!DOCTYPE svg PUBLIC "-//W3C//DTD SVG 1.1//EN" "http://www.w3.org/Graphics/SVG/1.1/DTD/svg11.dtd"><svg t="1760783183397" class="icon" viewBox="0 0 1024 1024" version="1.1" xmlns="http://www.w3.org/2000/svg" p-id="25624" xmlns:xlink="http://www.w3.org/1999/xlink" width="128" height="128"><path d="M959.96077842 512.20614043v371.89459248c0 57.98825596-19.19257295 77.33477988-76.35975645 77.33477988-224.87127099 0-449.74254199-0.30790195-674.61381387 0.56448721-21.34788926 0-28.22437266-5.1317042-26.47959258-26.53091016 2.00136445-25.65852012-0.46185293-51.31704023 0.82107247-76.97556035 0.71843818-15.39511172-4.82380136-18.73072002-18.83335342-18.06359853-22.16896172 1.07765771-44.44055684 0-66.71215283 0.30790282s-32.94553974-12.11082188-34.12583174-32.94554062c-0.97502344-17.03725752 0-34.22846602-0.41053623-51.31704023-0.61580479-23.86242422 12.0595043-34.22846602 34.53636797-34.53636797s44.49187441-0.92370674 66.71215283 0c14.52272256 0.71843818 18.78203672-3.74614365 18.88467012-18.52545147 0-41.61811992 0.97502344-41.61811992-41.61811904-41.61811992h-35.92192852c-31.09812627-0.46185293-41.8233876-10.77657891-42.49050996-41.05363271-0.25658526-12.82926006 0-25.65852012 0-38.48778018 0.35921953-32.63763779 7.90282441-39.92465742 41.6694375-40.18124268 19.65442675 0 39.36017021-0.76975576 59.01459609 0 13.85560107 0.71843818 19.19257295-2.66848594 19.29520723-18.01228095 0.30790195-42.07997285 1.12897529-42.07997285-41.05363272-42.07997373-14.52272256 0-29.09676182 0.56448721-43.61948438 0-31.55998008-1.6934625-35.92192852-12.0595043-35.25480615-78.92560811 0.41053623-30.79022432 8.10809209-39.87334072 35.92192764-40.54046133 21.34788926-0.51317051 42.79841192-1.23160869 64.09498359 0.25658526 16.42145273 1.180292 21.50184023-5.1317042 19.50047578-20.5268168a73.94785488 73.94785488 0 0 1 0-20.52681591c2.36058398-16.16486748-4.31063174-20.78340117-19.9623287-19.80837774-21.29657168 1.33424297-42.74709433 0.56448721-64.0949836 0C76.17870723 301.54968916 64.22183721 289.38755058 63.34944717 266.9620045c-0.61580479-16.21618506 0-32.48368682-0.25658526-48.69987189-0.56448721-23.75978994 12.21345528-34.38241699 34.43373457-34.94690419 21.34788926-0.61580479 42.79841192-1.12897529 64.0949836 0 16.01091651 0.97502344 22.68213222-2.77112021 21.55315693-20.52681592-1.64214492-26.42827588 0.66712148-53.06181943-0.82107246-79.49009619-0.92370674-17.03725752 4.46458271-21.39920596 21.2452541-21.29657168 126.49650469 0.66712148 253.04432607 0.35921953 379.74609932 0.35921953h300.10205302c58.14220693 0 76.46238984 18.57676904 76.51370743 76.97556035q0.10263427 186.69139278 0 372.86961592z m-597.53561924 2.10399873c0-121.41611807-0.46185293-242.83223526 0.46185293-364.35098672 0-20.21891396-3.07902217-29.55861563-25.65852011-27.30066591a566.23222442 566.23222442 0 0 1-66.71215196 0.41053623c-15.80564883-0.30790195-32.43236924-2.92507119-27.76251885 22.22027841 3.07902217 16.67803799-12.0595043 43.92738633 25.65852012 39.05226826 23.24661943-3.02770547 34.43373457 10.2634084 33.51002695 33.92056319-0.61580479 16.21618506 0 32.53500352 0 48.75118857-0.66712148 26.53091016-9.23706738 37.20485391-35.4600747 34.79295323-31.81656533-2.66848594-22.27159512 18.42281719-23.86242422 34.38241699-1.6934625 17.80701328 0.87239004 28.37832364 23.81110751 26.78749541 28.01910411-1.95004776 34.99822177 6.56858145 35.46007471 33.97188076 0.25658526 15.39511172 0 30.79022432 0 46.18533692-0.46185293 30.79022432-7.54360489 40.12992597-37.35880576 38.38514589-30.79022432-1.79609678-20.16759727 19.14125625-21.75842461 33.71529551-1.79609678 16.78067227-1.12897529 29.19939609 22.99003331 27.40329931 29.1480794-2.10399873 35.92192852 6.51726386 35.92192851 35.92192852v48.75118858c0 22.8873999-10.2634084 36.99958623-34.12583174 34.07451503-32.89422305-4.15667988-23.19530185 18.52545146-25.29930059 35.40875802-2.51453496 20.52681592 5.1317042 27.30066592 25.19666632 25.14534961 23.19530185-2.41190068 35.30612373 8.77521357 34.38241698 33.04817401-0.61580479 16.21618506 0 32.48368682 0 48.699871-0.56448721 27.55725029-9.28838408 37.35880576-37.2561706 36.33246475-18.21754951-0.66712148-24.83744766 4.72116797-22.01501075 22.57949795a76.00053691 76.00053691 0 0 1 0 20.52681591c-1.84741347 15.03589307 4.72116797 19.03862197 18.98730528 18.47413477a630.58379326 630.58379326 0 0 1 74.35839112 0c20.88603545 1.64214492 27.24934834-4.20799747 27.04408066-26.06905635-1.12897529-120.33845947-0.51317051-240.8821875-0.51317051-361.42591553z" fill="#ff7159" p-id="25625"></path></svg>