<?xml version="1.0" standalone="no"?><!DOCTYPE svg PUBLIC "-//W3C//DTD SVG 1.1//EN" "http://www.w3.org/Graphics/SVG/1.1/DTD/svg11.dtd"><svg t="1760782858716" class="icon" viewBox="0 0 1024 1024" version="1.1" xmlns="http://www.w3.org/2000/svg" p-id="13065" xmlns:xlink="http://www.w3.org/1999/xlink" width="128" height="128"><path d="M534.8571425 77.71428594c240 0 434.28571406 194.28571406 434.285715 434.28571406s-194.28571406 434.28571406-434.285715 434.28571406h-45.714285C249.1428575 946.28571406 54.8571425 752 54.8571425 512S249.1428575 77.71428594 489.1428575 77.71428594h45.714285m0-22.85714344h-45.714285C237.71428531 54.8571425 32 260.57142875 32 512s205.71428531 457.1428575 457.1428575 457.1428575h45.714285c251.42857125 0 457.1428575-205.71428531 457.1428575-457.1428575S786.28571469 54.8571425 534.8571425 54.8571425z" fill="#d81e06" p-id="13066"></path><path d="M676.57142844 809.14285719c-11.42857125 0-20.57142844-2.28571406-31.99999969-6.85714313L512 740.57142875l-132.57142875 61.71428531c-22.8571425 11.42857125-48 9.14285719-63.99999938-2.28571406-16.00000031-11.42857125-25.1428575-34.28571469-22.85714343-59.42857125l16.00000031-146.28571406-98.28571406-107.42857219c-16.00000031-20.57142844-22.8571425-43.42857188-16.00000032-63.99999938 6.85714313-20.57142844 25.1428575-34.28571469 50.28571407-38.85714281l144-29.71428562 70.85714343-128.00000063C473.14285719 205.71428563 491.42857156 192.00000031 512 192.00000031c20.57142844 0 41.14285687 13.71428531 52.57142812 36.57142781l70.85714344 128.00000063 144 29.71428562c25.1428575 4.57142813 43.42857188 20.57142844 50.28571406 38.85714282 6.85714313 20.57142844 0 41.14285687-18.28571437 61.71428531l-98.28571406 107.42857219 16.00000031 146.28571406c2.28571406 25.1428575-4.57142813 48-22.85714344 59.42857125-6.85714313 6.85714313-18.28571437 9.14285719-29.71428562 9.14285719zM512 690.28571469l150.85714312 70.8571425c9.14285719 2.28571406 16.00000031 2.28571406 18.28571438 2.28571406 2.28571406-2.28571406 4.57142813-9.14285719 2.28571406-18.28571437l-18.28571437-166.85714251 112.00000031-123.42857156c6.85714313-6.85714313 9.14285719-13.71428531 6.85714219-16.00000031 0-2.28571406-6.85714313-6.85714313-15.99999938-9.14285719L603.42857188 397.71428563l-82.28571469-146.28571407c0-9.14285719-6.85714313-13.71428531-9.14285719-13.71428625-2.28571406 0-9.14285719 4.57142813-13.71428531 13.71428625L416 397.71428563l-164.57142844 31.99999968c-9.14285719 2.28571406-16.00000031 4.57142813-16.00000031 9.14285719 0 2.28571406 2.28571406 9.14285719 6.85714313 16.00000031l112.00000031 123.42857156-18.28571438 166.85714251c-2.28571406 9.14285719 0 16.00000031 2.28571407 18.28571437 2.28571406 2.28571406 9.14285719 2.28571406 18.28571437-2.28571406l155.42857125-70.8571425z" fill="#d81e06" p-id="13067"></path></svg>