<?xml version="1.0" standalone="no"?><!DOCTYPE svg PUBLIC "-//W3C//DTD SVG 1.1//EN" "http://www.w3.org/Graphics/SVG/1.1/DTD/svg11.dtd"><svg t="1760782646350" class="icon" viewBox="0 0 1024 1024" version="1.1" xmlns="http://www.w3.org/2000/svg" p-id="7940" xmlns:xlink="http://www.w3.org/1999/xlink" width="128" height="128"><path d="M937.6 1024h-582.4V0h582.4C984.96 0 1024 38.4 1024 85.76v853.12c0 46.72-39.04 85.12-86.4 85.12zM819.2 417.92c12.8-12.8 12.8-32 0-44.8a30.4 30.4 0 0 0-23.04-9.6c-8.32 0-16.64 3.2-23.04 9.6l-84.48 83.2-84.48-83.2a30.4 30.4 0 0 0-23.04-9.6c-8.32 0-16.64 3.2-23.04 9.6a30.08 30.08 0 0 0-9.6 22.4c0 8.32 3.2 16.64 9.6 22.4l84.48 83.2-84.48 83.2a30.08 30.08 0 0 0-9.6 22.4c0 8.32 3.2 16.64 9.6 22.4 12.8 12.8 32.64 12.8 45.44 0l84.48-83.2 84.48 83.2c12.8 12.8 32.64 12.8 45.44 0 12.8-12.8 12.8-32 0-44.8l-84.48-83.2 85.76-83.2zM83.84 938.88v-85.12h41.6c46.08 0 83.84-38.4 83.84-85.12 0-47.36-37.76-85.12-83.84-85.12h-41.6V597.12h41.6c46.08 0 83.84-38.4 83.84-85.12 0-47.36-37.76-85.12-83.84-85.12h-41.6V341.12h41.6c46.08 0 83.84-37.76 83.84-85.12s-37.76-85.12-83.84-85.12h-41.6V85.12C83.84 38.4 121.6 0 167.68 0h125.44v1024H167.68c-46.08 0-83.84-38.4-83.84-85.12z m83.2-686.72c0 23.68-18.56 42.88-41.6 42.88H41.6c-22.4 0-41.6-19.2-41.6-42.88 0-23.68 19.2-42.88 41.6-42.88h83.84c23.04 0 41.6 19.2 41.6 42.88zM41.6 469.12h83.84c22.4 0 41.6 19.84 41.6 42.88s-18.56 42.88-41.6 42.88H41.6C19.2 554.88 0 535.68 0 512c0-23.68 19.2-42.88 41.6-42.88z m0 259.84h83.84c22.4 0 41.6 19.2 41.6 42.88s-18.56 42.88-41.6 42.88H41.6c-22.4 0-41.6-19.2-41.6-42.88s18.56-42.88 41.6-42.88z" fill="#F55757" p-id="7941"></path></svg>