<?xml version="1.0" standalone="no"?><!DOCTYPE svg PUBLIC "-//W3C//DTD SVG 1.1//EN" "http://www.w3.org/Graphics/SVG/1.1/DTD/svg11.dtd"><svg t="1760323725371" class="icon" viewBox="0 0 1024 1024" version="1.1" xmlns="http://www.w3.org/2000/svg" p-id="196120" xmlns:xlink="http://www.w3.org/1999/xlink" width="128" height="128"><path d="M536.796756 350.460884c-15.129582 0-27.129894 8.216125-35.993772 24.647353-9.914814 18.779715-14.866592 53.598732-14.866592 104.46012 0 50.603515 4.694929 85.424578 14.084787 104.46012 8.081049 16.432251 20.344351 24.647353 36.775578 24.647353 16.95209 0 29.080316-8.215102 36.385698-24.647353 9.645684-19.561521 14.475689-54.382585 14.475689-104.46012-0.264013-51.117215-5.220908-86.200244-14.867616-105.241926C564.440349 358.420159 552.446177 350.460884 536.796756 350.460884z" fill="#d81e06" p-id="196121"></path><path d="M805.411563 231.911884 245.670236 231.911884c-48.060599 0-87.020936 38.960337-87.020936 87.020936l0 307.98242c0 48.060599 38.960337 87.020936 87.020936 87.020936l559.741327 0c48.060599 0 87.020936-38.960337 87.020936-87.020936L892.432499 318.933843C892.432499 270.873244 853.471139 231.911884 805.411563 231.911884zM420.209434 463.136106l0 32.863479L420.209434 625.107057c0 10.954493-5.477758 16.432251-16.432251 16.432251s-16.432251-5.477758-16.432251-16.432251L387.344932 495.999584l-101.720729 0L285.624203 625.107057c0 10.954493-5.477758 16.432251-16.432251 16.432251s-16.432251-5.477758-16.432251-16.432251L252.759701 495.999584l0-32.863479L252.759701 334.028633c0-10.954493 5.477758-16.432251 16.432251-16.432251 10.954493 0 16.432251 5.477758 16.432251 16.432251l0 129.107473 101.720729 0L387.344932 334.028633c0-10.954493 5.477758-16.432251 16.432251-16.432251s16.432251 5.477758 16.432251 16.432251L420.209434 463.136106zM600.959078 603.589998c-13.826913 25.302269-35.20992 37.94931-64.162322 37.94931-28.16855-0.26299-48.647977-11.865235-61.423955-34.819017-14.866592-25.039279-22.299889-67.421552-22.299889-127.151935 0-61.289901 7.042393-102.631472 21.12718-124.021641 16.689101-25.296129 37.558407-37.94931 62.597687-37.94931 28.16855 0.26299 49.816592 13.045107 64.946174 38.341237 12.519128 21.908986 18.779715 63.123666 18.779715 123.629715C620.258633 539.561729 613.737102 580.898183 600.959078 603.589998zM804.40156 350.460884l-50.860365 0L753.541195 625.107057c0 10.954493-5.477758 16.432251-16.432251 16.432251s-16.432251-5.477758-16.432251-16.432251L720.676693 350.460884 669.816329 350.460884c-10.954493 0-16.432251-5.477758-16.432251-16.432251s5.477758-16.432251 16.432251-16.432251l50.860365 0 32.863479 0 50.860365 0c10.954493 0 16.432251 5.477758 16.432251 16.432251S815.356053 350.460884 804.40156 350.460884z" fill="#d81e06" p-id="196122"></path></svg>