<?xml version="1.0" standalone="no"?><!DOCTYPE svg PUBLIC "-//W3C//DTD SVG 1.1//EN" "http://www.w3.org/Graphics/SVG/1.1/DTD/svg11.dtd"><svg t="1760782929303" class="icon" viewBox="0 0 1024 1024" version="1.1" xmlns="http://www.w3.org/2000/svg" p-id="17408" xmlns:xlink="http://www.w3.org/1999/xlink" width="128" height="128"><path d="M878 903.3H313.7V119.6h280.6v238l84.2-77 84.9 77v-238H876c31.6 0 30 21.5 30 21.5v740.7s1.6 21.5-28 21.5z m-618.8 0.9l-110.2 0.1c-27.8 0-31.1-25.6-31.1-25.6V141c0-24.5 31.2-21.4 31.2-21.4h110.1v784.6z m701.3-2.6V121.2S962 65.7 897 65.7H128c-62.1 0-63.6 55.5-63.6 55.5v780.5c0-0.1-0.2 55.5 63.6 55.5h768.9c66.3 0 63.6-55.6 63.6-55.6zM765.7 704.5c-1.7 0-3.4 0.2-5.1 0.5-1.1-0.3-2.3-0.5-3.6-0.5H403.7c-0.7 0-1.5 0.1-2.2 0.2-1-0.1-2.1-0.2-3.1-0.2-14.8 0-26.7 12.3-26.7 27.4 0 15.1 12 27.4 26.7 27.4 1.1 0 2.1-0.1 3.1-0.2 0.7 0.1 1.4 0.2 2.2 0.2H757c1.2 0 2.4-0.2 3.6-0.5 1.7 0.3 3.4 0.5 5.1 0.5 14.7 0 26.7-12.3 26.7-27.4 0-15.1-12-27.4-26.7-27.4z m0-116.1c-1.7 0-3.4 0.2-5.1 0.5-1.1-0.3-2.3-0.5-3.6-0.5H403.7c-0.7 0-1.5 0.1-2.2 0.2-1-0.1-2.1-0.2-3.1-0.2-14.8 0-26.7 12.3-26.7 27.4 0 15.1 12 27.4 26.7 27.4 1.1 0 2.1-0.1 3.1-0.2 0.7 0.1 1.4 0.2 2.2 0.2H757c1.2 0 2.4-0.2 3.6-0.5 1.7 0.3 3.4 0.5 5.1 0.5 14.7 0 26.7-12.3 26.7-27.4 0-15.1-12-27.4-26.7-27.4zM663.9 472.3c-1.7 0-3.4 0.2-5.1 0.5-1.1-0.3-2.3-0.5-3.6-0.5H403.7c-0.7 0-1.5 0.1-2.2 0.2-1-0.1-2.1-0.2-3.1-0.2-14.8 0-26.7 12.3-26.7 27.4 0 15.1 12 27.4 26.7 27.4 1 0 2.1-0.1 3.1-0.2 0.7 0.1 1.4 0.2 2.2 0.2h251.6c1.2 0 2.4-0.2 3.6-0.5 1.6 0.3 3.3 0.5 5.1 0.5 14.7 0 26.7-12.3 26.7-27.4-0.1-15.1-12-27.4-26.8-27.4z" fill="#22B573" p-id="17409"></path></svg>