<?xml version="1.0" standalone="no"?><!DOCTYPE svg PUBLIC "-//W3C//DTD SVG 1.1//EN" "http://www.w3.org/Graphics/SVG/1.1/DTD/svg11.dtd"><svg t="1760783155486" class="icon" viewBox="0 0 1024 1024" version="1.1" xmlns="http://www.w3.org/2000/svg" p-id="23387" xmlns:xlink="http://www.w3.org/1999/xlink" width="128" height="128"><path d="M194.612561 827.163325a448 448 0 1 0 633.556618-633.578734 448 448 0 1 0-633.556618 633.578734Z" fill="#5B79FB" p-id="23388"></path><path d="M259.382077 762.410406a356.4 356.4 0 1 0 504.016917-504.034511 356.4 356.4 0 1 0-504.016917 504.034511Z" fill="#FFFFFF" p-id="23389"></path><path d="M511.4 137.4c-205.6 0-373 167.3-373 373 0 201.3 160.3 365.9 360 372.8 4.3 0.1 8.6 0.2 13 0.2 5.5 0 10.8-0.2 16.2-0.4 198.2-8.5 356.8-172.4 356.8-372.6 0-205.7-167.3-373-373-373z m16.3 712.3c-5.4 0.2-10.9 0.4-16.4 0.4-4.3 0-8.6-0.1-12.9-0.2-181.3-6.8-326.8-156.5-326.8-339.5 0-187.3 152.4-339.8 339.7-339.8 187.4 0 339.8 152.5 339.8 339.8 0.1 181.9-143.6 330.8-323.4 339.3z" fill="#5B79FB" p-id="23390"></path><path d="M511.4 222.9c-159.4 0-289 129-289 287.5s129.6 287.5 289 287.5c159.3 0 289-129 289-287.5s-129.7-287.5-289-287.5z m0 541.7c-141 0-255.7-114-255.7-254.2s114.7-254.2 255.7-254.2 255.7 114 255.7 254.2-114.7 254.2-255.7 254.2z" fill="#A4BEFF" p-id="23391"></path><path d="M511.4 308.4c-113 0-205 90.6-205 202s91.9 202 205 202c113 0 204.9-90.6 204.9-202s-91.9-202-204.9-202z m0 370.7c-94.7 0-171.7-75.7-171.7-168.7 0-93 77-168.7 171.7-168.7 94.7 0 171.7 75.7 171.7 168.7 0 93-77.1 168.7-171.7 168.7z" fill="#A4BEFF" p-id="23392"></path><path d="M511.4 393.9c-66.7 0-120.9 52.3-120.9 116.5s54.2 116.5 120.9 116.5 120.9-52.3 120.9-116.5S578 393.9 511.4 393.9z m0 199.7c-48.3 0-87.6-37.3-87.6-83.2 0-45.9 39.3-83.2 87.6-83.2s87.6 37.3 87.6 83.2c0 45.9-39.3 83.2-87.6 83.2z" fill="#A4BEFF" p-id="23393"></path><path d="M557.3 510.4c0 24.3-19.7 44-44 44s-44-19.7-44-44 19.7-44 44-44 44 19.7 44 44z" fill="#5B79FB" p-id="23394"></path><path d="M783.9 797.8l-8.2 57.7 54 52.9 5-59.7zM800.7 781.1l57.9-8.3 52.8 54.2-59.8 4.8z" fill="#FF7E71" p-id="23395"></path><path d="M522 501.4c-2.3-2.3-5.5-3.8-9-3.8-7 0-12.7 5.7-12.7 12.7 0 3.8 1.7 7.3 4.4 9.6l330.1 328.7 16.8-16.8L522 501.4z" fill="#FF7E71" p-id="23396"></path></svg>