<?xml version="1.0" standalone="no"?><!DOCTYPE svg PUBLIC "-//W3C//DTD SVG 1.1//EN" "http://www.w3.org/Graphics/SVG/1.1/DTD/svg11.dtd"><svg t="1760783206122" class="icon" viewBox="0 0 1037 1024" version="1.1" xmlns="http://www.w3.org/2000/svg" p-id="27533" xmlns:xlink="http://www.w3.org/1999/xlink" width="129.625" height="128"><path d="M307.671 586.44c-55.312-3.045-84.184-33.112-86.609-90.256 2.425-61.994 32.21-94.505 89.345-97.549 54.090 3.647 82.961 35.556 86.609 95.725-2.434 58.967-32.219 89.655-89.345 92.079zM308.582 416.87c-40.114 3.647-62.302 29.482-66.552 77.492 2.425 46.806 24.005 72.022 64.728 75.668 42.539-2.425 65.030-27.642 67.464-75.668-3.646-48.009-25.527-73.846-65.639-77.492z" fill="#D44C1A" p-id="27534"></path><path d="M448.067 433.279l-0.911 17.321h27.35v16.41h-27.35v115.782h-19.146v-115.782h-20.969v-16.41h20.969v-16.41c-0.611-24.306 9.72-36.157 30.998-35.556 9.116 0 17.923 1.53 26.439 4.558l-3.647 14.588c-5.469-1.823-11.25-2.736-17.321-2.736-11.551-0.602-17.021 5.47-16.411 18.233z" fill="#D44C1A" p-id="27535"></path><path d="M519.178 433.279l-0.911 17.321h27.35v16.41h-27.35v115.782h-19.146v-115.782h-20.969v-16.41h20.969v-16.41c-0.611-24.306 9.72-36.157 30.998-35.556 9.117 0 17.923 1.53 26.439 4.558l-3.647 14.588c-5.469-1.823-11.25-2.736-17.321-2.736-11.552-0.602-17.021 5.47-16.411 18.233z" fill="#D44C1A" p-id="27536"></path><path d="M660.487 541.767l20.057 5.469c-7.294 26.748-26.748 39.803-58.347 39.202-40.724-1.822-61.692-24.306-62.905-67.464 1.822-45.583 22.482-69.286 61.994-71.11 38.892 1.221 58.949 24.924 60.17 71.11 0 2.441 0 3.956 0 4.558h-101.195c1.213 29.791 14.888 45.583 41.025 47.407 20.659 0 33.73-9.719 39.202-29.173zM581.172 507.124h79.315c-1.221-26.731-14.286-40.717-39.202-41.937-24.924 2.443-38.29 16.411-40.113 41.937z" fill="#D44C1A" p-id="27537"></path><path d="M756.212 467.010c-7.294 0-14.285 4.266-20.968 12.763-5.469 6.69-8.206 17.321-8.206 31.909v72.022h-19.146v-133.104h19.146v23.703h0.911c6.072-17.013 16.41-25.82 30.998-26.439 7.294-0.602 14.587 1.53 21.88 6.382l-8.205 18.233c-5.47-3.646-10.941-5.469-16.411-5.469z" fill="#D44C1A" p-id="27538"></path><path d="M503.088 890.125h-244.295c-86.44 0-156.762-70.331-156.762-156.762v-466.074c0-86.433 70.322-156.762 156.762-156.762h501.43c86.44 0 156.762 70.331 156.762 156.762v273.308c0 15.273-12.383 27.665-27.665 27.665s-27.665-12.392-27.665-27.665v-273.308c0-55.922-45.503-101.436-101.436-101.436h-501.43c-55.931 0-101.436 45.513-101.436 101.436v466.074c0 55.922 45.503 101.436 101.436 101.436h244.295c15.281 0 27.665 12.392 27.665 27.665 0.001 15.273-12.382 27.665-27.665 27.665z" fill="#D44C1A" p-id="27539"></path><path d="M681.148 902.48c-7.087 0-14.167-2.702-19.559-8.105l-92.213-92.214c-10.807-10.807-10.807-28.313 0-39.118s28.313-10.807 39.118 0l73.132 73.122 215.594-205.157c11.067-10.518 28.582-10.104 39.11 0.973 10.537 11.076 10.104 28.583-0.964 39.118l-235.145 223.762c-5.349 5.079-12.213 7.619-19.073 7.619z" fill="#D44C1A" p-id="27540"></path></svg>