<?xml version="1.0" standalone="no"?><!DOCTYPE svg PUBLIC "-//W3C//DTD SVG 1.1//EN" "http://www.w3.org/Graphics/SVG/1.1/DTD/svg11.dtd"><svg t="1759140321562" class="icon" viewBox="0 0 1024 1024" version="1.1" xmlns="http://www.w3.org/2000/svg" p-id="159965" xmlns:xlink="http://www.w3.org/1999/xlink" width="128" height="128"><path d="M775.836735 929.959184h-527.67347c-45.97551 0-83.591837-37.616327-83.591836-83.591837v-309.812245c0-45.97551 37.616327-83.591837 83.591836-83.591837h527.151021c45.97551 0 83.591837 37.616327 83.591836 83.591837V846.367347c0.522449 45.97551-37.093878 83.591837-83.069387 83.591837z m-527.67347-435.2c-22.987755 0-41.795918 18.808163-41.795918 41.795918V846.367347c0 22.987755 18.808163 41.795918 41.795918 41.795918h527.151021c22.987755 0 41.795918-18.808163 41.795918-41.795918v-309.812245c0-22.987755-18.808163-41.795918-41.795918-41.795918H248.163265z" fill="#515151" p-id="159966"></path><path d="M294.661224 494.759184c-11.493878 0-20.897959-9.404082-20.897959-20.89796V332.277551C273.763265 201.142857 380.342857 94.040816 512 94.040816c94.040816 0 179.722449 55.379592 217.861224 141.583674 13.583673 30.302041 20.37551 63.216327 20.375511 96.653061 0 11.493878-9.404082 20.897959-20.897959 20.897959s-20.897959-9.404082-20.89796-20.897959c0-27.689796-5.746939-54.857143-16.718367-79.934694C660.37551 181.812245 589.844898 135.836735 512 135.836735c-108.669388 0-196.440816 88.293878-196.440816 196.440816v141.583673c0 11.493878-9.404082 20.897959-20.89796 20.89796zM509.387755 829.64898c-32.391837 0-59.036735-26.644898-59.036735-59.036735v-45.453061c-22.465306-18.285714-35.526531-45.453061-35.52653-74.710204 0-53.289796 43.363265-97.17551 97.17551-97.175511s97.17551 43.363265 97.17551 97.175511c0 31.869388-15.15102 61.126531-40.75102 78.889796v40.75102c0 32.914286-26.644898 59.559184-59.036735 59.559184z m2.612245-234.579592c-30.302041 0-55.379592 24.555102-55.379592 55.379592 0 18.808163 9.404082 36.571429 25.6 46.497959 6.269388 3.657143 9.404082 10.44898 9.404082 17.763265v55.902041c0 9.404082 7.836735 17.240816 17.240816 17.240816s17.240816-7.836735 17.240816-17.240816v-52.767347c0-7.836735 4.179592-15.15102 10.971429-18.285714 18.285714-9.404082 29.779592-28.212245 29.779592-49.110204 0.522449-30.302041-24.555102-55.379592-54.857143-55.379592z" fill="#515151" p-id="159967"></path></svg>