<?xml version="1.0" standalone="no"?><!DOCTYPE svg PUBLIC "-//W3C//DTD SVG 1.1//EN" "http://www.w3.org/Graphics/SVG/1.1/DTD/svg11.dtd"><svg t="1760782744877" class="icon" viewBox="0 0 1024 1024" version="1.1" xmlns="http://www.w3.org/2000/svg" p-id="9991" xmlns:xlink="http://www.w3.org/1999/xlink" width="128" height="128"><path d="M948.4 720l-156-490.4c-2-6-6.4-10.8-12-13.6-5.6-2.8-12.4-3.2-18-1.2l-141.6 50.8V248c0-12.8-10.4-23.2-23.2-23.2H140c-12.8 0-23.2 10.4-23.2 23.2v540.8c0 12.8 10.4 23.2 23.2 23.2h457.6c12.8 0 23.2-10.4 23.2-23.2v-342.4L732 796c2 6 6.4 10.8 12 13.6 5.6 2.8 12.4 3.2 18 1.2l172-61.6c11.6-4.4 18-17.2 14.4-29.2z m-51.2-7.2l-128.4 46-141.6-446 128.4-46 141.6 446zM574.4 271.2v494.4H392V271.2h182.4z m-228.8 0v494.4H163.2V271.2h182.4z" fill="#D0011B" p-id="9992"></path><path d="M293.2 652.8H217.6c-12.8 0-23.2 10.4-23.2 23.2s10.4 23.2 23.2 23.2h75.6c12.8 0 23.2-10.4 23.2-23.2s-10.4-23.2-23.2-23.2zM254.4 443.6c36.4 0 66-29.6 66-66s-29.6-66-66-66-66 29.6-66 66 29.6 66 66 66z m0-85.6c10.8 0 19.6 8.8 19.6 19.6s-8.8 19.6-19.6 19.6-19.6-8.8-19.6-19.6 8.8-19.6 19.6-19.6zM699.6 316.4c-29.2 10.4-44.8 43.2-34.8 73.2 4.8 14.8 15.2 26.8 29.2 33.6 7.6 3.6 16 5.6 24.4 5.6 6.4 0 12.8-1.2 18.8-3.2 28.4-10 44-42.4 35.2-71.6v-7.6h-2.8c-5.6-12-14.8-21.6-26.8-27.6-14-6.8-29.2-7.6-43.2-2.4z m15.6 43.6c0.8-0.4 2-0.4 2.8-0.4 1.2 0 2.8 0.4 4 0.8 2.4 1.2 4.4 3.6 5.6 6.4 2 6.4-0.8 12.8-6.4 14.8-2 0.8-4.8 0.8-6.8-0.4-2.4-1.2-4.4-3.6-5.6-6.4-2-6 0.8-12.8 6.4-14.8zM521.6 658h-75.6c-10 0-18.4 8-18.4 18.4s8 18.4 18.4 18.4h75.6c10 0 18-8 18-18.4s-7.6-18.4-18-18.4zM483.2 438.4c33.6 0 61.2-27.2 61.2-61.2 0-33.6-27.2-61.2-61.2-61.2s-61.2 27.2-61.2 61.2c0.4 34 27.6 61.2 61.2 61.2z m0-85.6c13.6 0 24.8 11.2 24.8 24.8 0 13.6-11.2 24.8-24.8 24.8-13.6 0-24.8-11.2-24.8-24.8 0.4-13.6 11.2-24.8 24.8-24.8z" fill="#D0011B" p-id="9993"></path></svg>