<?xml version="1.0" standalone="no"?><!DOCTYPE svg PUBLIC "-//W3C//DTD SVG 1.1//EN" "http://www.w3.org/Graphics/SVG/1.1/DTD/svg11.dtd"><svg t="1759301104331" class="icon" viewBox="0 0 1024 1024" version="1.1" xmlns="http://www.w3.org/2000/svg" p-id="177991" xmlns:xlink="http://www.w3.org/1999/xlink" width="128" height="128"><path d="M469.333333 213.333333a42.666667 42.666667 0 0 1 42.666667 42.666667v597.333333a42.666667 42.666667 0 1 1-85.333333 0V256a42.666667 42.666667 0 0 1 42.666666-42.666667z" fill="#515151" p-id="177992"></path><path d="M810.666667 512a298.666667 298.666667 0 0 0-298.666667 298.666667 42.666667 42.666667 0 1 1-85.333333 0 384 384 0 0 1 384-384 42.666667 42.666667 0 1 1 0 85.333333zM439.168 140.501333a42.666667 42.666667 0 0 1 60.330667 0l170.666666 170.666667a42.666667 42.666667 0 0 1-60.330666 60.330667l-170.666667-170.666667a42.666667 42.666667 0 0 1 0-60.330667z" fill="#515151" p-id="177993"></path><path d="M268.501333 311.168l170.666667-170.666667a42.666667 42.666667 0 1 1 60.330667 60.330667l-170.666667 170.666667a42.666667 42.666667 0 0 1-60.330667-60.330667z" fill="#515151" p-id="177994"></path></svg>