<?xml version="1.0" standalone="no"?><!DOCTYPE svg PUBLIC "-//W3C//DTD SVG 1.1//EN" "http://www.w3.org/Graphics/SVG/1.1/DTD/svg11.dtd"><svg t="1760080470266" class="icon" viewBox="0 0 1024 1024" version="1.1" xmlns="http://www.w3.org/2000/svg" p-id="191485" xmlns:xlink="http://www.w3.org/1999/xlink" width="128" height="128"><path d="M439.04896 0a219.52 219.52 0 0 1 195.2 320h-49.28c-30.08 0-58.24 11.52-79.36 32.64-21.76 21.76-33.28 49.92-33.28 80v3.2c-10.88 1.92-22.4 3.2-33.28 3.2a219.52 219.52 0 0 1-219.52-219.52C219.52896 97.92 317.44896 0 439.04896 0z m441.6 492.8h-200.96c-16 0-28.8 12.8-28.8 28.8s12.8 28.8 28.8 28.8h200.96c7.68 0 14.72-3.2 20.48-8.32s8.32-12.8 8.32-20.48a29.504 29.504 0 0 0-28.8-28.8z m-115.2 115.2h-85.76c-16 0-28.8 12.8-28.8 28.8s12.8 28.8 28.8 28.8h85.76c16 0 28.8-12.8 28.8-28.8s-12.8-28.8-28.8-28.8z m-508.16 135.04H151.68896c-19.84 0-35.2 16-35.2 35.2 0 19.84 16 35.2 35.2 35.2h105.6c19.2 0 35.2-15.36 35.2-35.2a34.304 34.304 0 0 0-35.2-35.2zM974.72896 384c12.8 0 25.6 5.12 34.56 14.08 9.6 9.6 14.72 21.76 14.72 34.56v305.28c0 13.44-5.12 25.6-14.08 34.56s-21.76 14.08-34.56 14.08h-262.4c-16.64 0-33.28 4.48-48 12.8l-96.64 54.4c-5.12 2.56-10.88 3.2-16 1.92a17.216 17.216 0 0 1-11.52-8.32l-1.28-5.12-2.56-409.6A48.32 48.32 0 0 1 584.96896 384h389.76zM315.52896 512c13.44 0 25.6 5.12 33.28 14.72l88.96 110.08 35.2-41.6 1.92 256.64 7.04 24.96 7.04 9.6c11.52 15.36 26.88 26.24 45.44 31.36 22.4 5.76 44.8 3.2 64.64-7.04l97.28-55.04c5.12-3.2 10.88-4.48 16.64-4.48h164.48v138.88c0 17.28-14.72 31.36-33.92 33.92H40.32896c-22.4 0-40.32-16-40.32-34.56v-219.52C-1.27104 628.48 131.84896 513.28 297.60896 512h17.92z" p-id="191486" fill="#515151"></path></svg>