<?xml version="1.0" standalone="no"?><!DOCTYPE svg PUBLIC "-//W3C//DTD SVG 1.1//EN" "http://www.w3.org/Graphics/SVG/1.1/DTD/svg11.dtd"><svg t="1760783047644" class="icon" viewBox="0 0 1024 1024" version="1.1" xmlns="http://www.w3.org/2000/svg" p-id="19513" xmlns:xlink="http://www.w3.org/1999/xlink" width="128" height="128"><path d="M32.064 512.543c0 264.797 214.66 479.457 479.457 479.457s479.457-214.66 479.457-479.457c0-264.797-214.66-479.457-479.457-479.457-264.797 0-479.457 214.66-479.457 479.457z" fill="#E9C995" p-id="19514"></path><path d="M411.493 798.958h211.304v-63.696l220.869-0.172 71.359-128.791v-27.758h-55.447v-46.759c0-38.352-24.277-72.599-60.729-85.671l-3.291-1.179c-1.355-9.603-3.743-18.268-7.095-26.437l44.906 12.531c29.899-50.761 23.256-142.451-25.249-202.256-48.503-59.804-89.034-40.745-89.034-40.745-84.383-25.63-149.498 88.063-149.498 153.124 0 65.063 15.282 89.877 15.282 89.877h43.385c-2.237 7.835-3.631 16.868-3.857 26.193l-2.29-11.107c-36.453 13.073-60.728 47.319-60.728 85.671v46.759h-62.242c23.227-22.796 37.64-54.54 37.64-89.656 28.545-138.532-55.685-131.059-55.685-131.059-20.457-13.070-44.746-19.649-69.941-21.473-4.497-0.345-9.741-0.541-15.029-0.542-66.012-0.093-118.155 56.532-112.985 122.558l2.39 30.512v0.004c0 35.167 14.457 66.953 37.744 89.756-5.527 5.003-11.347 10.919-17.942 17.905-1.822 1.933-2.666 3.968-2.65 6.063l-41.763 20.566c-37.389 18.412-61.068 56.469-61.068 98.146v77.633h211.643z" fill="" p-id="19515"></path><path d="M412.476 711.891l407.673-0.315 71.36-128.792v-27.758l-75.26 129.765h-403.774z" fill="#5B2B00" p-id="19516"></path><path d="M891.508 555.026h-479.033v129.765h403.774z" fill="#3D2400" p-id="19517"></path><path d="M237.399 599.662c-37.389 18.413-61.069 56.468-61.069 98.146v77.633h211.645v-249.932l-150.577 74.153z" fill="#4C4C4C" p-id="19518"></path><path d="M599.281 697.808c0-41.678-23.679-79.733-61.068-98.146l-150.578-74.153v249.932h211.645v-77.633z" fill="#434142" p-id="19519"></path><path d="M493.269 573.033c-33.929-35.945-47.365-43.644-105.727-43.653-58.363 0.008-71.798 7.708-105.727 43.653-16.54 17.522 47.309 43.624 105.727 43.653 58.418-0.029 122.268-26.131 105.727-43.653z" fill="#383838" p-id="19520"></path><path d="M262.010 465.372c0 69.38 56.244 125.625 125.625 125.625v-251.25c-69.381 0-125.625 56.244-125.625 125.625z" fill="#3B2B15" p-id="19521"></path><path d="M387.635 339.747v251.249c69.381 0 125.626-56.244 125.626-125.625-0.001-69.38-56.245-125.624-125.626-125.624z" fill="#2F2313" p-id="19522"></path><path d="M457.577 334.312s84.23-7.473 55.685 131.059h-2.555c-0.001 0-0.001 0-0.002 0-3.561 0-6.658-1.981-8.252-4.9-6.158-11.467-20.71-39.527-21.78-50.762 0 0-48.532 2.019-93.037-5.051v-91.821c25.194 1.825 49.484 8.405 69.941 21.474z" fill="#2F2313" p-id="19523"></path><path d="M372.822 312.297c4.958 0.007 9.903 0.185 14.813 0.541v91.821c-23.737-3.772-46.329-10.127-59.797-20.76 0 0-45.082 34.047-56.782 74.611-1.167 4.048-4.832 6.862-9.045 6.862l-2.39-30.517c-5.169-66.026 46.972-122.651 113.201-122.558z" fill="#3B2B15" p-id="19524"></path><path d="M537.861 508.267v48.756h149.1v-166.118l-88.371 31.691c-36.453 13.073-60.729 47.319-60.729 85.671z" fill="#313C56" p-id="19525"></path><path d="M836.062 508.267v48.756h-149.101v-166.118l88.372 31.691c36.453 13.073 60.729 47.319 60.729 85.671z" fill="#20273B" p-id="19526"></path><path d="M750.981 379.649c-28.511-23.547-64.016 11.255-64.020 11.257v154.442l70.701-145.501-6.681-20.198z" fill="#D6ACA1" p-id="19527"></path><path d="M686.961 390.905s-35.507-34.804-64.019-11.257l-6.682 20.197 70.701 145.501v-154.442z" fill="#E3C4BB" p-id="19528"></path><path d="M755.124 383.547c-2.614-0.007-4.979-1.067-6.695-2.779-1.7-1.711-2.757-4.079-2.762-6.694 0.007-2.601 1.068-4.97 2.78-6.688 1.749-1.749 4.193-2.762 6.677-2.762s4.928 1.013 6.685 2.77c1.71 1.718 2.768 4.088 2.77 6.704-0.007 2.606-1.068 4.972-2.78 6.687-1.708 1.7-4.075 2.757-6.689 2.761zM686.998 450.968c-5.223 0-9.466-4.232-9.466-9.457 0-5.223 4.233-9.466 9.457-9.466 5.224 0 9.456 4.232 9.466 9.457 0 5.223-4.232 9.457-9.457 9.466zM657.453 445.212h0.009c-3.487-1.443-5.894-4.818-5.894-8.755 0-1.288 0.258-2.516 0.725-3.636 1.939-4.773 7.46-7.104 12.295-5.13 4.847 1.973 7.168 7.493 5.204 12.329-1.452 3.487-4.832 5.895-8.774 5.899-1.286-0.001-2.513-0.261-3.631-0.731zM704.193 440.009c-1.973-4.836 0.347-10.357 5.183-12.339 4.835-1.973 10.356 0.347 12.329 5.183 1.973 4.845-0.348 10.356-5.182 12.338-1.064 0.445-2.301 0.705-3.597 0.707-3.704 0-7.24-2.229-8.733-5.888zM632.294 428.671c-3.721-3.66-3.772-9.651-0.112-13.382 3.66-3.722 9.651-3.773 13.372-0.123h0.009c3.722 3.669 3.773 9.661 0.113 13.382-1.707 1.748-4.088 2.832-6.722 2.832-0.008 0-0.017 0-0.026 0-0.001 0-0.004 0-0.006 0-2.582 0-4.922-1.034-6.629-2.71zM728.288 428.518c-3.66-3.722-3.609-9.713 0.112-13.382 3.722-3.66 9.712-3.609 13.371 0.113 3.671 3.722 3.62 9.712-0.101 13.372-1.699 1.681-4.036 2.72-6.615 2.72-0.007 0-0.014 0-0.021 0-0.003 0-0.008 0-0.012 0-2.635 0-5.018-1.079-6.732-2.82zM615.335 403.748c-2.046-4.816 0.215-10.366 5.030-12.391 4.805-2.034 10.356 0.215 12.39 5.030 2.033 4.805-0.215 10.356-5.030 12.39-1.090 0.478-2.361 0.757-3.696 0.758-3.676-0.010-7.172-2.178-8.694-5.786zM746.229 408.727c-4.815-2.034-7.073-7.575-5.039-12.39 2.024-4.816 7.575-7.075 12.39-5.041 4.805 2.034 7.063 7.575 5.040 12.391-1.523 3.619-5.031 5.786-8.721 5.786-0.006 0-0.011 0-0.018 0-1.32 0-2.575-0.275-3.713-0.769zM618.799 383.547c-2.615-0.007-4.98-1.068-6.695-2.779-1.702-1.708-2.759-4.076-2.761-6.692 0.005-2.609 1.064-4.973 2.776-6.687 1.712-1.703 4.079-2.761 6.693-2.765 2.602 0.009 4.968 1.071 6.684 2.782 1.697 1.706 2.754 4.074 2.759 6.689-0.007 2.603-1.068 4.971-2.78 6.69-1.71 1.7-4.077 2.756-6.691 2.761z" fill="#830E5B" p-id="19529"></path><path d="M757.457 379.65s15.518 24.015 15.518 55.118l-24.989 8.64 24.989 12.096s-15.706 82.078-86.014 101.517v-18.95l64.020-158.423h6.476z" fill="#C771BA" p-id="19530"></path><path d="M616.466 379.65s-15.518 24.015-15.518 55.118l24.989 8.64-24.989 12.096s15.707 82.078 86.015 101.517v-18.95l-64.019-158.423h-6.478z" fill="#DB85CB" p-id="19531"></path><path d="M583.782 312.811c0 56.363 46.194 102.053 103.178 102.053v-204.106c-56.984 0-103.178 45.691-103.178 102.053z" fill="#F2DED1" p-id="19532"></path><path d="M686.961 210.759v204.106c56.984 0 103.178-45.69 103.178-102.052s-46.193-102.053-103.178-102.053z" fill="#E6CCBD" p-id="19533"></path><path d="M646.401 407.508h-85.048s-15.281-24.816-15.281-89.876 65.114-178.754 149.498-153.124c0 0 40.531-19.058 89.034 40.745 48.504 59.805 55.148 151.495 25.249 202.255h-83.054s45.182-49.788 33.887-113.535c0 0-45.182-6.566-55.148-54.872 0 0-12.623 58.158-95.347 73.273 0 0 5.647 57.517 36.211 95.134z" fill="#3B2B15" p-id="19534"></path></svg>