<?xml version="1.0" standalone="no"?><!DOCTYPE svg PUBLIC "-//W3C//DTD SVG 1.1//EN" "http://www.w3.org/Graphics/SVG/1.1/DTD/svg11.dtd"><svg t="1760782625167" class="icon" viewBox="0 0 1024 1024" version="1.1" xmlns="http://www.w3.org/2000/svg" p-id="6670" xmlns:xlink="http://www.w3.org/1999/xlink" width="128" height="128"><path d="M866.334926 123.78589a119.141769 119.141769 0 1 0-160.422844 111.779978v629.880403a75.876909 75.876909 0 1 1-151.753819 0V158.519328C554.158263 71.118119 483.063079 0 395.719204 0h-1.742979C306.609417 0 235.537166 71.095185 235.537166 158.519328v629.880403a119.141769 119.141769 0 1 0 82.56215 0v-629.880403A76.003046 76.003046 0 0 1 393.976225 82.56215h1.742979a76.003046 76.003046 0 0 1 75.876909 75.957178v706.961344c0 87.412676 71.095185 158.519328 158.43906 158.519328S788.474232 952.904815 788.474232 865.480672V235.565868a119.394043 119.394043 0 0 0 77.860694-111.779978zM276.818241 946.024636a45.867861 45.867861 0 1 1 45.753192-45.867861 45.867861 45.867861 0 0 1-45.753192 45.867861z m470.374916-776.428219a45.867861 45.867861 0 1 1 45.753192-45.810527 45.867861 45.867861 0 0 1-45.753192 45.810527z" fill="#13227a" p-id="6671"></path></svg>