<?xml version="1.0" standalone="no"?><!DOCTYPE svg PUBLIC "-//W3C//DTD SVG 1.1//EN" "http://www.w3.org/Graphics/SVG/1.1/DTD/svg11.dtd"><svg t="1760086279369" class="icon" viewBox="0 0 1024 1024" version="1.1" xmlns="http://www.w3.org/2000/svg" p-id="192614" xmlns:xlink="http://www.w3.org/1999/xlink" width="128" height="128"><path d="M837.12 405.504c0.512-8.704-2.048-16.896-7.68-23.552-5.632-6.144-13.312-9.216-21.504-8.704h-28.672V645.12h28.672c8.192 0.512 15.872-2.56 21.504-8.704 5.632-6.656 8.192-15.36 7.68-23.552v-207.36z" p-id="192615" fill="#707070"></path><path d="M512 0C229.376 0 0 229.376 0 512s229.376 512 512 512 512-229.376 512-512S794.624 0 512 0zM323.584 613.376c0.512 18.944-3.584 37.888-11.264 54.784-7.168 14.848-18.944 27.136-33.28 34.816-15.872 8.704-33.792 12.8-52.224 12.288-17.92 0.512-35.84-3.584-51.712-12.288-14.336-8.192-26.112-20.48-33.28-34.816-7.68-17.408-11.776-35.84-11.264-54.784V306.688h69.12v308.736c-0.512 8.192 2.048 16.384 7.168 23.04 5.12 5.632 12.288 8.704 19.968 8.192 7.68 0.512 15.36-2.56 20.48-8.192 5.12-6.656 7.68-14.848 7.168-23.04V306.688h69.12v306.688z m234.496 0c0.512 18.944-3.584 37.888-11.264 54.784-7.168 14.848-18.944 27.136-33.28 34.816-15.872 8.704-33.792 12.8-52.224 12.288-17.92 0.512-35.84-3.584-51.712-12.288-14.336-8.192-26.112-19.968-33.28-34.816-8.192-16.896-11.776-35.84-11.264-54.784V306.688h69.12v308.736c-0.512 8.192 2.048 16.384 7.168 23.04 5.12 5.632 12.288 8.704 19.968 8.192 7.68 0.512 15.36-2.56 20.48-8.192 5.12-6.656 7.68-14.848 7.168-23.04V306.688h69.12v306.688z m108.544 97.792h-69.12v-404.48h69.12v404.48zM896 669.184c-7.168 13.312-17.92 24.576-31.744 31.232-15.36 7.68-32.256 11.264-49.664 10.752H710.144v-404.48h104.96c16.896-0.512 34.304 3.072 49.664 10.752 13.312 6.656 24.576 17.92 31.232 31.232 7.68 15.36 11.264 31.744 10.752 48.64v223.232c0.512 16.896-3.072 33.792-10.752 48.64z" p-id="192616" fill="#707070"></path></svg>