<?xml version="1.0" standalone="no"?><!DOCTYPE svg PUBLIC "-//W3C//DTD SVG 1.1//EN" "http://www.w3.org/Graphics/SVG/1.1/DTD/svg11.dtd"><svg t="1760783070772" class="icon" viewBox="0 0 1024 1024" version="1.1" xmlns="http://www.w3.org/2000/svg" p-id="20616" xmlns:xlink="http://www.w3.org/1999/xlink" width="128" height="128"><path d="M190.563662 728.674854 66.502112 728.674854c-25.665543 0-46.51029 20.804838-46.51029 46.426379 0 25.622564 20.844747 46.427402 46.51029 46.427402L190.563662 821.528636c25.710568 0 46.550199-20.801768 46.550199-46.427402C237.113861 749.4756 216.26502 728.674854 190.563662 728.674854z" p-id="20617" fill="#d4237a"></path><path d="M237.113861 511.960091c0-25.671683-20.84884-46.472428-46.550199-46.472428L66.502112 465.487663c-25.665543 0-46.51029 20.800745-46.51029 46.472428 0 25.66145 20.844747 46.426379 46.51029 46.426379L190.563662 558.38647C216.27423 558.385447 237.113861 537.624611 237.113861 511.960091z" p-id="20618" fill="#d4237a"></path><path d="M237.108744 248.811786c0-25.666566-20.849864-46.427402-46.555315-46.427402L66.491879 202.384383c-25.660426 0-46.50415 20.760836-46.50415 46.427402 0 25.621541 20.844747 46.426379 46.50415 46.426379l124.062574 0C216.26502 295.238165 237.108744 274.438443 237.108744 248.811786z" p-id="20619" fill="#d4237a"></path><path d="M991.841068 109.485577c0-25.644053-28.765137-46.427402-64.184835-46.427402l-47.874357 0-16.370853 0L655.795499 63.058175l0-0.005117L159.557484 63.053058c-25.705452 0-46.505173 20.785396-46.505173 46.427402l0 46.427402 77.506235 0c51.417043 0 93.060489 41.605583 93.060489 92.898807 0 51.288107-41.643446 92.892667-93.060489 92.892667l-77.506235 0 0 77.395718 77.506235 0c51.417043 0 93.060489 41.561581 93.060489 92.854804 0 51.293223-41.643446 92.853781-93.060489 92.853781l-77.506235 0 0 77.393671 77.506235 0c51.417043 0 93.060489 41.606607 93.060489 92.900853 0 51.288107-41.643446 92.892667-93.060489 92.892667l-77.506235 0 0 46.387493c0 25.664519 20.804838 46.472428 46.505173 46.472428l457.759655 0 38.479383 0 207.615525 0 0 0.005117 64.24521 0 0-0.010233c35.418674 0 64.184835-20.803815 64.184835-46.468334L991.842091 109.485577zM415.931502 788.787954c39.051411-4.306072 71.342862-22.692838 96.907097-55.110155 7.499811-8.611122 12.746302-12.967336 15.775288-12.967336 13.521968 4.356214 21.76163 17.323551 24.790616 38.902008-18.029632 45.385677-45.848211 75.625398-83.385129 90.77033-19.543102-2.177596-35.31839-16.20917-47.325865-42.143842L415.931502 788.787954zM684.115498 756.369613c1.478677-21.578458 9.014304-34.545794 22.536272-38.902008 2.993171 0 7.499811 4.356214 13.521968 12.967336 27.043936 30.290887 60.847833 47.562249 101.413737 51.869345l-6.759961 25.934672c-15.035438 28.062126-30.81175 42.143842-47.326888 42.143842C728.4134 835.236845 700.630636 803.932886 684.115498 756.369613zM848.631412 727.193107l-4.50664 0c-13.521968 0-28.557406-2.127454-45.072545-6.483668-10.528797-2.127454-17.289782-4.306072-20.282952-6.483668-18.028609-2.127454-42.079374-4.306072-72.116481-6.483668-31.5516-2.127454-63.102177-4.306072-94.653777-6.483668l-9.014304 0c-28.558429 0-51.094702 1.11438-67.609841 3.241834-18.028609 0-35.31839 0-51.833529 0-30.071899 2.177596-54.861492 4.356214-74.369801 6.483668-10.528797 4.356214-21.057595 6.483668-31.550577 6.483668-7.535627 2.177596-11.268648-3.241834-11.268648-16.20917 0-2.127454 0-7.547907 0-16.20917 1.478677-10.789741 2.25332-19.452028 2.25332-25.935696 0-8.611122 2.254344-17.272385 6.760984-25.934672 2.993171-2.127454 8.239662-3.241834 15.776312-3.241834 2.993171 0 5.986341 0 9.014304 0 9.014304 0 15.000646 2.178619 18.029632 6.483668 1.478677 2.178619 3.731998 2.178619 6.760984 0 2.993171-2.127454 5.986341-3.241834 9.014304-3.241834 1.478677-34.545794 2.254344-83.172281 2.254344-145.881508 0-17.273409 0-34.545794 0-51.869345 0-32.41834-0.774643-55.110155-2.254344-68.077491-1.51347 0-2.25332-1.064238-2.25332-3.241834-4.507664-8.611122-6.021134-15.093766-4.507664-19.451004 2.993171-15.09479 11.268648-25.934672 24.790616-32.41834 1.478677 0 3.731998 1.11438 6.760984 3.241834 1.478677 2.177596 3.731998 2.177596 6.760984 0l76.624145 0 0-38.902008c0-6.483668-0.774643-16.20917-2.25332-29.176506-1.51347-10.788717-1.51347-20.514219 0-29.176506-1.51347-8.611122 1.478677-14.030551 9.014304-16.20917 2.994194 0 6.760984 1.11438 11.268648 3.241834 4.507664 2.177596 9.015328 2.177596 13.521968 0 1.478677 0 3.731998 0 6.760984 0 15.000646-2.127454 21.76163 6.483668 20.281929 25.934672-1.51347 12.967336-3.027963 20.565385-4.50664 22.692838l0 61.593823 58.595536 0 0-38.902008c0-6.483668-0.775666-16.20917-2.254344-29.176506-1.51347-10.788717-1.51347-20.514219 0-29.176506-1.51347-8.611122 1.478677-14.030551 9.015328-16.20917 2.993171 0 6.760984 1.11438 11.268648 3.241834 4.50664 0 8.239662 0 11.268648 0 2.993171 0 5.986341 0 9.014304 0 13.522991-2.127454 20.282952 6.483668 20.282952 25.934672-1.51347 10.839883-3.027963 17.323551-4.50664 19.451004l0 64.835657 74.369801 0 2.254344 0c4.50664-2.127454 9.753131-4.306072 15.775288-6.483668 13.521968 8.661264 21.76163 19.451004 24.790616 32.41834 0 6.483668-2.25332 16.20917-6.760984 29.176506-1.51347 30.290887-2.25332 90.77033-2.25332 181.541683 1.478677 23.807219 2.25332 38.902008 2.25332 45.385677-1.51347 12.967336-0.774643 25.934672 2.25332 38.902008l20.282952 0c19.507286 0 33.80492-3.241834 42.819225-9.725502l0 25.934672C875.675348 693.710528 863.632057 718.581985 848.631412 727.193107z" p-id="20620" fill="#d4237a"></path><path d="M487.44014 470.065935 541.526989 470.065935 541.526989 463.582267 541.526989 379.294582 487.44014 379.294582Z" p-id="20621" fill="#d4237a"></path><path d="M487.44014 554.35362l0 77.802994 54.086849 0c0-28.062126 0-60.480466 0-97.253998l-54.086849 0L487.44014 554.35362z" p-id="20622" fill="#d4237a"></path><path d="M595.614861 379.294582l58.595536 0 0 90.77033-58.595536 0 0-90.77033Z" p-id="20623" fill="#d4237a"></path><path d="M595.614861 557.595454c0 12.967336 0 27.049053 0 42.143842 1.478677 15.145955 2.25332 25.934672 2.25332 32.41834 16.515139 0 35.283598 0 56.342216 0 0-32.41834 0-64.835657 0-97.253998l-58.595536 0L595.614861 557.595454z" p-id="20624" fill="#d4237a"></path><path d="M708.297246 379.294582l56.341193 0 0 90.77033-56.341193 0 0-90.77033Z" p-id="20625" fill="#d4237a"></path><path d="M708.297246 567.320956c0 28.113291 0 49.740868 0 64.835657 5.986341 0 15.775288 1.11438 29.297256 3.241834 12.007475 2.178619 21.021779 2.178619 27.043936 0l0-100.495832-56.341193 0L708.297246 567.320956z" p-id="20626" fill="#d4237a"></path></svg>