<?xml version="1.0" standalone="no"?><!DOCTYPE svg PUBLIC "-//W3C//DTD SVG 1.1//EN" "http://www.w3.org/Graphics/SVG/1.1/DTD/svg11.dtd"><svg t="1759237615417" class="icon" viewBox="0 0 1024 1024" version="1.1" xmlns="http://www.w3.org/2000/svg" p-id="173355" xmlns:xlink="http://www.w3.org/1999/xlink" width="128" height="128"><path d="M463.36 353.28c0 75.733333-16.853333 135.893333-50.346667 180.053333a166.186667 166.186667 0 0 1-140.373333 66.346667h-104.533333V917.333333H85.333333V106.666667h187.306667a166.613333 166.613333 0 0 1 140.373333 66.346666c33.493333 44.373333 50.346667 104.32 50.346667 180.266667z m-82.773333 0c0-60.16-10.88-101.12-32.426667-123.306667a129.92 129.92 0 0 0-97.28-33.28H168.106667v312.96h82.773333a129.92 129.92 0 0 0 97.28-33.28c21.546667-21.973333 32.426667-63.146667 32.426667-123.093333zM938.666667 917.333333h-93.653334l-165.546666-402.986666-57.6 99.626666V917.333333h-82.773334V106.666667h82.773334v350.72L827.093333 106.666667h97.066667l-190.72 317.653333z" p-id="173356" fill="#515151"></path></svg>